<svg width="28" height="28" viewBox="0 0 28 28" fill="none" xmlns="http://www.w3.org/2000/svg">
<path opacity="0.1" d="M14.0004 26.8334C21.088 26.8334 26.8337 21.0877 26.8337 14C26.8337 6.91224 21.088 1.1665 14.0004 1.1665C6.91268 1.1665 1.16699 6.91224 1.16699 14C1.16699 21.0877 6.91268 26.8334 14.0004 26.8334Z" fill="#0B2441"/>
<path d="M8.86678 17.5303C8.62295 17.5303 8.37912 17.4405 8.18662 17.248L5.61995 14.6813C5.24778 14.3092 5.24778 13.6931 5.61995 13.3209L8.18662 10.7542C8.55879 10.3821 9.17478 10.3821 9.54695 10.7542C9.91912 11.1264 9.91912 11.7425 9.54695 12.1146L7.66045 14.0011L9.54695 15.8876C9.91912 16.2598 9.91912 16.8759 9.54695 17.248C9.35445 17.4405 9.11062 17.5303 8.86678 17.5303Z" fill="#2189FF"/>
<path d="M19.1341 17.5303C18.8903 17.5303 18.6464 17.4405 18.4539 17.248C18.0818 16.8759 18.0818 16.2598 18.4539 15.8876L20.3404 14.0011L18.4539 12.1146C18.0818 11.7425 18.0818 11.1264 18.4539 10.7542C18.8261 10.3821 19.4421 10.3821 19.8143 10.7542L22.3809 13.3209C22.7531 13.6931 22.7531 14.3092 22.3809 14.6813L19.8143 17.248C19.6218 17.4405 19.3779 17.5303 19.1341 17.5303Z" fill="#2189FF"/>
<path d="M12.7169 17.9531C12.5885 17.9531 12.4602 17.9274 12.3447 17.8761C11.857 17.6707 11.626 17.1061 11.8442 16.6056L14.4109 10.6123C14.6162 10.1246 15.1809 9.8936 15.6685 10.1118C16.1562 10.3171 16.3872 10.8818 16.169 11.3823L13.6024 17.3755C13.4484 17.7349 13.089 17.9531 12.7169 17.9531Z" fill="#2189FF"/>
</svg>
