<svg width="32" height="32" viewBox="0 0 32 32" fill="none" xmlns="http://www.w3.org/2000/svg">
<path d="M28.8666 13.373C28.3466 12.6263 27.4266 12.1996 26.3733 12.1996H20.9066C20.5466 12.1996 20.2133 12.053 19.9866 11.7863C19.7466 11.5196 19.6533 11.1463 19.7066 10.7596L20.3866 6.38631C20.6799 5.07964 19.8133 3.61297 18.5066 3.17297C17.2933 2.71964 15.8666 3.33297 15.2933 4.19964L9.66659 12.5596L9.50659 12.8263V24.613L9.70659 24.813L13.9333 28.0796C14.4933 28.6396 15.7599 28.9463 16.6533 28.9463H21.8533C23.6399 28.9463 25.4399 27.5996 25.8399 25.9596L29.1199 15.973C29.4666 15.0263 29.3733 14.1063 28.8666 13.373Z" fill="#A09782"/>
<path opacity="0.1" d="M6.94669 8.50667H5.57335C3.50669 8.50667 2.66669 9.30667 2.66669 11.28V24.6933C2.66669 26.6667 3.50669 27.4667 5.57335 27.4667H6.94669C9.01335 27.4667 9.85335 26.6667 9.85335 24.6933V11.28C9.85335 9.30667 9.01335 8.50667 6.94669 8.50667Z" fill="#0B2441"/>
</svg>
