<svg width="16" height="16" viewBox="0 0 16 16" fill="none" xmlns="http://www.w3.org/2000/svg">
<path d="M8.96787 3.20913L9.95336 5.1964C10.0877 5.47304 10.4461 5.73838 10.7485 5.78919L12.5347 6.08841C13.6769 6.28037 13.9457 7.11592 13.1226 7.94019L11.734 9.34031C11.4988 9.57743 11.37 10.0347 11.4428 10.3622L11.8404 12.0954C12.1539 13.4673 11.4316 13.998 10.2277 13.281L8.55351 12.2817C8.25115 12.101 7.7528 12.101 7.44484 12.2817L5.77062 13.281C4.57235 13.998 3.84443 13.4616 4.158 12.0954L4.55555 10.3622C4.62835 10.0347 4.49956 9.57743 4.26439 9.34031L2.87574 7.94019C2.05823 7.11592 2.3214 6.28037 3.46368 6.08841L5.24988 5.78919C5.54664 5.73838 5.90501 5.47304 6.03939 5.1964L7.02488 3.20913C7.56242 2.13081 8.43593 2.13081 8.96787 3.20913Z" fill="#2189FF"/>
</svg>
